<?xml version="1.0" standalone="no"?>
<!DOCTYPE svg PUBLIC "-//W3C//DTD SVG 1.1//EN" "http://www.w3.org/Graphics/SVG/1.1/DTD/svg11.dtd" >
<svg xmlns="http://www.w3.org/2000/svg">
<metadata>Generated by IcoMoon</metadata>
<defs>
<font id="icograil" horiz-adv-x="1024">
<font-face units-per-em="1024" ascent="1024" descent="0" />
<missing-glyph horiz-adv-x="1024" />
<glyph unicode="&#x20;" horiz-adv-x="0" d="" />
<glyph unicode="&#xe900;" glyph-name="arrow_back" d="M854 554v-84h-520l238-240-60-60-342 342 342 342 60-60-238-240h520z" />
<glyph unicode="&#xe901;" glyph-name="arrow_downward" d="M854 512l-342-342-342 342 62 60 238-238v520h84v-520l240 238z" />
<glyph unicode="&#xe902;" glyph-name="hint" d="M854 938c46 0 84-38 84-84v-512c0-46-38-86-84-86h-598l-170-170v768c0 46 38 84 84 84h684z" />
<glyph unicode="&#xe903;" glyph-name="hint_outline" d="M854 342v512h-684v-598l86 86h598zM854 938c46 0 84-38 84-84v-512c0-46-38-86-84-86h-598l-170-170v768c0 46 38 84 84 84h684z" />
<glyph unicode="&#xe904;" glyph-name="hint_more" d="M726 554v86h-86v-86h86zM554 554v86h-84v-86h84zM384 554v86h-86v-86h86zM854 938c46 0 84-38 84-84v-512c0-46-38-86-84-86h-598l-170-170v768c0 46 38 84 84 84h684z" />
<glyph unicode="&#xe905;" glyph-name="hint_alert" d="M554 598v170h-84v-170h84zM554 426v86h-84v-86h84zM854 938c46 0 84-38 84-84v-512c0-46-38-86-84-86h-598l-170-170v768c0 46 38 84 84 84h684z" />
<glyph unicode="&#xe906;" glyph-name="hint_question" d="M853.333 938.667h-682.667c-46.933 0-84.907-38.4-84.907-85.333l-0.427-768 170.667 170.667h597.333c46.933 0 85.333 38.4 85.333 85.333v512c0 46.933-38.4 85.333-85.333 85.333zM554.667 325.717h-85.333v85.333h85.333v-85.333zM642.987 621.483l-38.4-39.253c-30.72-31.147-49.92-56.747-49.92-120.747h-85.333v21.333c0 46.933 19.2 89.6 49.92 120.747l52.907 53.76c15.744 15.36 25.173 36.693 25.173 60.16 0 46.933-38.4 85.333-85.333 85.333s-85.333-38.4-85.333-85.333h-85.333c0 94.293 76.373 170.667 170.667 170.667s170.667-76.373 170.667-170.667c0-37.504-15.317-71.68-39.68-96z" />
<glyph unicode="&#xe907;" glyph-name="hint_text" d="M768 682v86h-512v-86h512zM598 426v86h-342v-86h342zM256 640v-86h512v86h-512zM854 938c46 0 84-38 84-84v-512c0-46-38-86-84-86h-598l-170-170v768c0 46 38 84 84 84h684z" />
<glyph unicode="&#xe908;" glyph-name="hint_edit" d="M768 426v86h-234l-86-86h320zM256 426h106l294 294c8 8 8 22 0 30l-76 76c-8 8-22 8-30 0l-294-294v-106zM854 938c46 0 84-38 84-84v-512c0-46-38-86-84-86h-598l-170-170v768c0 46 38 84 84 84h684z" />
<glyph unicode="&#xe909;" glyph-name="chat" d="M726 512c0-24-20-42-44-42h-426l-170-172v598c0 24 18 42 42 42h554c24 0 44-18 44-42v-384zM896 768c24 0 42-18 42-42v-640l-170 170h-470c-24 0-42 18-42 42v86h554v384h86z" />
<glyph unicode="&#xe90a;" glyph-name="equalizer" d="M682 640h172v-470h-172v470zM170 170v342h172v-342h-172zM426 170v684h172v-684h-172z" />
<glyph unicode="&#xe90b;" glyph-name="bubble_chart" d="M444 648c0 114 90 206 204 206s206-92 206-206-92-204-206-204-204 90-204 204zM546 256c0 48 38 86 86 86s84-38 84-86-36-86-84-86-86 38-86 86zM170 410c0 76 62 136 138 136s136-60 136-136-60-136-136-136-138 60-138 136z" />
<glyph unicode="&#xe90c;" glyph-name="show_chart" d="M150 236l-64 64 320 320 170-172 302 340 60-60-362-408-170 172z" />
<glyph unicode="&#xe90d;" glyph-name="timeline" d="M982 682c0-46-40-84-86-84-8 0-16 0-22 2l-152-152c2-6 4-14 4-22 0-46-40-84-86-84s-86 38-86 84c0 8 2 16 4 22l-110 110c-6-2-14-4-22-4s-16 2-22 4l-194-194c2-6 4-14 4-22 0-46-40-86-86-86s-86 40-86 86 40 84 86 84c8 0 16 0 22-2l194 194c-2 6-2 14-2 22 0 46 38 86 84 86s86-40 86-86c0-8 0-16-2-22l108-108c6 2 14 2 22 2s16 0 22-2l152 150c-2 6-4 14-4 22 0 46 40 86 86 86s86-40 86-86z" />
<glyph unicode="&#xe90e;" glyph-name="multiline_chart" d="M938 728l-130-146c46-74 78-164 88-262h-86c-8 70-30 136-62 194l-172-194-170 172-256-256-64 64 320 320 170-172 122 140c-72 84-172 138-288 138-100 0-192-40-264-104l-60 60c88 78 200 128 324 128 138 0 258-60 346-158l122 136z" />
<glyph unicode="&#xe90f;" glyph-name="donut_small" d="M554 390c42 12 66 44 80 80h304c-20-202-170-364-384-384v304zM634 554c-14 36-38 68-80 80v304c214-20 364-182 384-384h-304zM470 634c-42-18-86-66-86-122s44-104 86-122v-304c-214 22-384 204-384 426s170 404 384 426v-304z" />
<glyph unicode="&#xe910;" glyph-name="donut_large" d="M554 216c128 18 238 126 256 254h128c-20-214-170-364-384-384v130zM810 554c-18 128-128 236-256 254v130c214-20 364-170 384-384h-128zM470 808c-128-20-256-146-256-296s128-276 256-296v-130c-214 22-384 204-384 426s170 404 384 426v-130z" />
<glyph unicode="&#xe911;" glyph-name="data_usage" d="M512 214c94 0 178 44 232 112l112-66c-78-106-202-174-344-174-236 0-426 190-426 426 0 222 168 402 384 424v-128c-144-20-256-146-256-296 0-166 132-298 298-298zM554 936c216-22 384-202 384-424 0-62-12-122-36-174l-112 66c12 34 20 70 20 108 0 150-112 276-256 296v128z" />
<glyph unicode="&#xe912;" glyph-name="pie_chart" d="M556 468h382c-20-202-180-362-382-382v382zM556 938c202-20 362-180 382-382h-382v382zM470 938v-852c-216 22-384 204-384 426s168 404 384 426z" />
<glyph unicode="&#xe913;" glyph-name="pie_chart_outlined" d="M554 174c154 20 276 142 296 296h-296v-296zM170 512c0-174 132-316 300-338v676c-168-20-300-164-300-338zM554 850v-296h296c-20 154-142 276-296 296zM512 938c234 0 426-192 426-426s-192-426-426-426-426 192-426 426 192 426 426 426z" />
<glyph unicode="&#xe914;" glyph-name="block" d="M512 170c188 0 342 154 342 342 0 78-26 152-72 210l-480-480c58-46 132-72 210-72zM170 512c0-78 26-152 72-210l480 480c-58 46-132 72-210 72-188 0-342-154-342-342zM512 938c236 0 426-190 426-426s-190-426-426-426-426 190-426 426 190 426 426 426z" />
<glyph unicode="&#xe915;" glyph-name="trending_down" d="M682 256l98 98-208 208-170-170-316 316 60 60 256-256 170 170 268-268 98 98v-256h-256z" />
<glyph unicode="&#xe916;" glyph-name="trending_flat" d="M938 512l-170-170v128h-640v84h640v128z" />
<glyph unicode="&#xe917;" glyph-name="trending_up" d="M682 768h256v-256l-98 98-268-268-170 170-256-256-60 60 316 316 170-170 208 208z" />
<glyph unicode="&#xe918;" glyph-name="close" d="M810 750l-238-238 238-238-60-60-238 238-238-238-60 60 238 238-238 238 60 60 238-238 238 238z" />
<glyph unicode="&#xe919;" glyph-name="done" d="M384 332l452 454 60-60-512-512-238 238 58 60z" />
<glyph unicode="&#xe91a;" glyph-name="done_all" d="M18 452l60 60 238-238-60-60zM948 786l62-60-512-512-240 238 62 60 178-178zM768 726l-270-272-60 60 270 272z" />
<glyph unicode="&#xe91b;" glyph-name="add" d="M810 470h-256v-256h-84v256h-256v84h256v256h84v-256h256v-84z" />
<glyph unicode="&#xe91c;" glyph-name="remove" d="M810 470h-596v84h596v-84z" />
<glyph unicode="&#xe91d;" glyph-name="priority_high" d="M426 896h172v-512h-172v512zM426 214c0 48 38 84 86 84s86-36 86-84-38-86-86-86-86 38-86 86z" />
<glyph unicode="&#xe91e;" glyph-name="new_releases" d="M554 470v256h-84v-256h84zM554 298v86h-84v-86h84zM982 512l-104-118 14-158-154-34-80-136-146 62-146-62-80 134-154 36 14 158-104 118 104 120-14 156 154 34 80 136 146-62 146 62 80-136 154-34-14-158z" />
<glyph unicode="&#xe91f;" glyph-name="warning" d="M554 426v172h-84v-172h84zM554 256v86h-84v-86h84zM42 128l470 810 470-810h-940z" />
<glyph unicode="&#xe920;" glyph-name="report" d="M554 470v256h-84v-256h84zM512 286c30 0 56 26 56 56s-26 54-56 54-56-24-56-54 26-56 56-56zM672 896l224-224v-320l-224-224h-320l-224 224v320l224 224h320z" />
<glyph unicode="&#xe921;" glyph-name="collapse_square" d="M726 470v84h-172v172h-84v-172h-172v-84h172v-172h84v172h172zM810 896c46 0 86-40 86-86v-596c0-46-40-86-86-86h-596c-48 0-86 40-86 86v596c0 46 38 86 86 86h596z" />
<glyph unicode="&#xe922;" glyph-name="expand_square" d="M726 470v84h-428v-84h428zM810 896c46 0 86-40 86-86v-596c0-46-40-86-86-86h-596c-46 0-86 40-86 86v596c0 46 40 86 86 86h596z" />
<glyph unicode="&#xe923;" glyph-name="add_circle" d="M726 470v84h-172v172h-84v-172h-172v-84h172v-172h84v172h172zM512 938c236 0 426-190 426-426s-190-426-426-426-426 190-426 426 190 426 426 426z" />
<glyph unicode="&#xe924;" glyph-name="remove_circle" d="M726 470v84h-428v-84h428zM512 938c236 0 426-190 426-426s-190-426-426-426-426 190-426 426 190 426 426 426z" />
<glyph unicode="&#xe925;" glyph-name="check_circle" d="M426 298l384 384-60 62-324-324-152 152-60-60zM512 938c236 0 426-190 426-426s-190-426-426-426-426 190-426 426 190 426 426 426z" />
<glyph unicode="&#xe926;" glyph-name="add_outline" d="M512 170c188 0 342 154 342 342s-154 342-342 342-342-154-342-342 154-342 342-342zM512 938c236 0 426-190 426-426s-190-426-426-426-426 190-426 426 190 426 426 426zM554 726v-172h172v-84h-172v-172h-84v172h-172v84h172v172h84z" />
<glyph unicode="&#xe927;" glyph-name="remove_outline" d="M512 170c188 0 342 154 342 342s-154 342-342 342-342-154-342-342 154-342 342-342zM512 938c236 0 426-190 426-426s-190-426-426-426-426 190-426 426 190 426 426 426zM298 554h428v-84h-428v84z" />
<glyph unicode="&#xe928;" glyph-name="check_box" d="M426 298l384 384-60 62-324-324-152 152-60-60zM810 896c48 0 86-40 86-86v-596c0-46-38-86-86-86h-596c-48 0-86 40-86 86v596c0 46 38 86 86 86h596z" />
<glyph unicode="&#xe929;" glyph-name="check_box_outline_blank" d="M810 896c46 0 86-40 86-86v-596c0-46-40-86-86-86h-596c-46 0-86 40-86 86v596c0 46 40 86 86 86h596zM810 810h-596v-596h596v596z" />
<glyph unicode="&#xe92a;" glyph-name="radio_button_checked" d="M512 170c188 0 342 154 342 342s-154 342-342 342-342-154-342-342 154-342 342-342zM512 938c236 0 426-190 426-426s-190-426-426-426-426 190-426 426 190 426 426 426zM512 726c118 0 214-96 214-214s-96-214-214-214-214 96-214 214 96 214 214 214z" />
<glyph unicode="&#xe92b;" glyph-name="radio_button_unchecked" d="M512 170c188 0 342 154 342 342s-154 342-342 342-342-154-342-342 154-342 342-342zM512 938c236 0 426-190 426-426s-190-426-426-426-426 190-426 426 190 426 426 426z" />
<glyph unicode="&#xe92c;" glyph-name="lens" d="M512 938c236 0 426-190 426-426s-190-426-426-426-426 190-426 426 190 426 426 426z" />
<glyph unicode="&#xe92d;" glyph-name="error" d="M554 470v256h-84v-256h84zM554 298v86h-84v-86h84zM512 938c236 0 426-190 426-426s-190-426-426-426-426 190-426 426 190 426 426 426z" />
<glyph unicode="&#xe92e;" glyph-name="help" d="M642 544c24 24 40 58 40 96 0 94-76 170-170 170s-170-76-170-170h84c0 46 40 86 86 86s86-40 86-86c0-24-10-44-26-60l-52-54c-30-32-50-74-50-120v-22h84c0 64 20 88 50 120zM554 214v84h-84v-84h84zM512 938c236 0 426-190 426-426s-190-426-426-426-426 190-426 426 190 426 426 426z" />
<glyph unicode="&#xe92f;" glyph-name="info" d="M554 640v86h-84v-86h84zM554 298v256h-84v-256h84zM512 938c236 0 426-190 426-426s-190-426-426-426-426 190-426 426 190 426 426 426z" />
<glyph unicode="&#xe930;" glyph-name="cancel" d="M726 358l-154 154 154 154-60 60-154-154-154 154-60-60 154-154-154-154 60-60 154 154 154-154zM512 938c236 0 426-190 426-426s-190-426-426-426-426 190-426 426 190 426 426 426z" />
<glyph unicode="&#xe931;" glyph-name="error_outline" d="M512 170c188 0 342 154 342 342s-154 342-342 342-342-154-342-342 154-342 342-342zM512 938c236 0 426-190 426-426s-190-426-426-426-426 190-426 426 190 426 426 426zM470 726h84v-256h-84v256zM470 384h84v-86h-84v86z" />
<glyph unicode="&#xe932;" glyph-name="help_outline" d="M512 768c94 0 170-76 170-170 0-106-128-118-128-214h-84c0 138 128 128 128 214 0 46-40 84-86 84s-86-38-86-84h-84c0 94 76 170 170 170zM512 170c188 0 342 154 342 342s-154 342-342 342-342-154-342-342 154-342 342-342zM512 938c236 0 426-190 426-426s-190-426-426-426-426 190-426 426 190 426 426 426zM470 256v86h84v-86h-84z" />
<glyph unicode="&#xe933;" glyph-name="info_outline" d="M470 640v86h84v-86h-84zM512 170c188 0 342 154 342 342s-154 342-342 342-342-154-342-342 154-342 342-342zM512 938c236 0 426-190 426-426s-190-426-426-426-426 190-426 426 190 426 426 426zM470 298v256h84v-256h-84z" />
<glyph unicode="&#xe934;" glyph-name="close_circle" d="M512 170c188 0 342 154 342 342s-154 342-342 342-342-154-342-342 154-342 342-342zM512 938c236 0 426-190 426-426s-190-426-426-426-426 190-426 426 190 426 426 426zM622 682l60-60-110-110 110-110-60-60-110 110-110-110-60 60 110 110-110 110 60 60 110-110z" />
<glyph unicode="&#xe935;" glyph-name="arrow_drop_up" d="M298 426l214 214 214-214h-428z" />
<glyph unicode="&#xe936;" glyph-name="arrow_drop_down" d="M298 598h428l-214-214z" />
<glyph unicode="&#xe937;" glyph-name="navigate_before" d="M658 708l-196-196 196-196-60-60-256 256 256 256z" />
<glyph unicode="&#xe938;" glyph-name="navigate_next" d="M426 768l256-256-256-256-60 60 196 196-196 196z" />
<glyph unicode="&#xe939;" glyph-name="expand_less" d="M512 682l256-256-60-60-196 196-196-196-60 60z" />
<glyph unicode="&#xe93a;" glyph-name="expand_more" d="M708 658l60-60-256-256-256 256 60 60 196-196z" />
<glyph unicode="&#xe93b;" glyph-name="arrow_forward" d="M512 854l342-342-342-342-60 60 238 240h-520v84h520l-238 240z" />
<glyph unicode="&#xe93c;" glyph-name="arrow_upward" d="M170 512l342 342 342-342-62-60-238 238v-520h-84v520l-240-238z" />
<glyph unicode="&#xe93d;" glyph-name="call_made" d="M384 810h426v-426h-84v282l-496-496-60 60 496 496h-282v84z" />
<glyph unicode="&#xe93e;" glyph-name="call_received" d="M854 794l-496-496h282v-84h-426v426h84v-282l496 496z" />
<glyph unicode="&#xe93f;" glyph-name="shuffle" d="M632 452l134-134 88 88v-236h-236l88 88-134 134zM618 854h236v-236l-88 88-536-536-60 60 536 536zM452 632l-60-60-222 222 60 60z" />
<glyph unicode="&#xe940;" glyph-name="unfold_more" d="M512 248l136 136 60-60-196-196-196 196 60 60zM512 776l-136-136-60 60 196 196 196-196-60-60z" />
<glyph unicode="&#xe941;" glyph-name="unfold_less" d="M708 794l-196-196-196 196 60 60 136-136 136 136zM316 230l196 196 196-196-60-60-136 136-136-136z" />
<glyph unicode="&#xe942;" glyph-name="swap_horiz" d="M896 640l-170-170v128h-300v84h300v128zM298 554v-128h300v-84h-300v-128l-170 170z" />
<glyph unicode="&#xe943;" glyph-name="import_export" d="M682 298h128l-170-170-170 170h128v300h84v-300zM384 896l170-170h-128v-300h-84v300h-128z" />
<glyph unicode="&#xe944;" glyph-name="open_with" d="M598 384v-128h128l-214-214-214 214h128v128h172zM982 512l-214-214v128h-128v172h128v128zM384 598v-172h-128v-128l-214 214 214 214v-128h128zM426 640v128h-128l214 214 214-214h-128v-128h-172z" />
<glyph unicode="&#xe945;" glyph-name="zoom_out_map" d="M896 384v-256h-256l98 98-124 122 62 62 122-124zM384 128h-256v256l98-98 122 124 62-62-124-122zM128 640v256h256l-98-98 124-122-62-62-122 124zM640 896h256v-256l-98 98-122-124-62 62 124 122z" />
<glyph unicode="&#xe946;" glyph-name="publish" d="M214 426l298 300 298-300h-170v-256h-256v256h-170zM214 854h596v-86h-596v86z" />
<glyph unicode="&#xe947;" glyph-name="get_app" d="M214 256h596v-86h-596v86zM810 640l-298-298-298 298h170v256h256v-256h170z" />
<glyph unicode="&#xe948;" glyph-name="file_upload" d="M214 256h596v-86h-596v86zM384 342v256h-170l298 298 298-298h-170v-256h-256z" />
<glyph unicode="&#xe949;" glyph-name="repeat" d="M726 298v172h84v-256h-512v-128l-170 170 170 170v-128h428zM298 726v-172h-84v256h512v128l170-170-170-170v128h-428z" />
<glyph unicode="&#xe94a;" glyph-name="autorenew" d="M800 694c34-52 54-116 54-182 0-188-154-342-342-342v-128l-170 172 170 170v-128c142 0 256 114 256 256 0 44-12 84-30 120zM512 768c-142 0-256-114-256-256 0-44 10-84 30-120l-62-62c-34 52-54 116-54 182 0 188 154 342 342 342v128l170-172-170-170v128z" />
<glyph unicode="&#xe94b;" glyph-name="sync" d="M512 256v128l170-170-170-172v128c-188 0-342 154-342 342 0 66 20 130 54 182l62-62c-20-36-30-76-30-120 0-142 114-256 256-256zM512 854c188 0 342-154 342-342 0-66-20-130-54-182l-62 62c20 36 30 76 30 120 0 142-114 256-256 256v-128l-170 170 170 172v-128z" />
<glyph unicode="&#xe94c;" glyph-name="cached" d="M256 512h128l-170-170-172 170h128c0 188 154 342 342 342 66 0 130-20 182-54l-62-62c-36 20-76 30-120 30-142 0-256-114-256-256zM810 682l172-170h-128c0-188-154-342-342-342-66 0-130 20-182 54l62 62c36-20 76-30 120-30 142 0 256 114 256 256h-128z" />
<glyph unicode="&#xe94d;" glyph-name="replay" d="M512 810c188 0 342-152 342-340s-154-342-342-342-342 154-342 342h86c0-142 114-256 256-256s256 114 256 256-114 256-256 256v-172l-214 214 214 214v-172z" />
<glyph unicode="&#xe94e;" glyph-name="refresh" d="M754 754l100 100v-300h-300l138 138c-46 46-110 76-180 76-142 0-256-114-256-256s114-256 256-256c112 0 208 70 242 170h88c-38-148-170-256-330-256-188 0-340 154-340 342s152 342 340 342c94 0 180-38 242-100z" />
<glyph unicode="&#xe94f;" glyph-name="settings_backup_restore" d="M512 896c212 0 384-172 384-384s-172-384-384-384c-88 0-170 30-234 80l60 60c50-34 110-54 174-54 166 0 298 132 298 298s-132 298-298 298-298-132-298-298h128l-172-170-170 170h128c0 212 172 384 384 384zM598 512c0-46-40-86-86-86s-86 40-86 86 40 86 86 86 86-40 86-86z" />
<glyph unicode="&#xe950;" glyph-name="redo" d="M786 572l152 154v-384h-384l156 154c-60 50-136 80-220 80-152 0-280-98-324-234l-100 32c58 178 226 308 424 308 114 0 218-42 296-110z" />
<glyph unicode="&#xe951;" glyph-name="undo" d="M534 682c198 0 364-130 424-308l-100-32c-44 136-172 234-324 234-84 0-160-30-220-80l156-154h-384v384l152-154c78 68 182 110 296 110z" />
<glyph unicode="&#xe952;" glyph-name="reply" d="M426 640c298-42 428-256 470-470-106 150-256 218-470 218v-174l-298 298 298 298v-170z" />
<glyph unicode="&#xe953;" glyph-name="reply_all" d="M554 640c298-42 428-256 470-470-106 150-256 218-470 218v-174l-298 298 298 298v-170zM298 682l-170-170 170-170v-128l-298 298 298 298v-128z" />
<glyph unicode="&#xe954;" glyph-name="visibility" d="M512 640c70 0 128-58 128-128s-58-128-128-128-128 58-128 128 58 128 128 128zM512 298c118 0 214 96 214 214s-96 214-214 214-214-96-214-214 96-214 214-214zM512 832c214 0 396-132 470-320-74-188-256-320-470-320s-396 132-470 320c74 188 256 320 470 320z" />
<glyph unicode="&#xe955;" glyph-name="visibility_off" d="M506 640h6c70 0 128-58 128-128v-8zM322 606c-14-28-24-60-24-94 0-118 96-214 214-214 34 0 66 10 94 24l-66 66c-8-2-18-4-28-4-70 0-128 58-128 128 0 10 2 20 4 28zM86 842l54 54 756-756-54-54c-47.968 47.365-96.266 94.401-144 142-58-24-120-36-186-36-214 0-396 132-470 320 34 84 90 156 160 212-39.017 38.983-77.307 78.693-116 118zM512 726c-28 0-54-6-78-16l-92 92c52 20 110 30 170 30 214 0 394-132 468-320-32-80-82-148-146-202l-124 124c10 24 16 50 16 78 0 118-96 214-214 214z" />
<glyph unicode="&#xe956;" glyph-name="edit" d="M884 724l-78-78-160 160 78 78c16 16 44 16 60 0l100-100c16-16 16-44 0-60zM128 288l472 472 160-160-472-472h-160v160z" />
<glyph unicode="&#xe957;" glyph-name="delete" d="M810 854v-86h-596v86h148l44 42h212l44-42h148zM256 214v512h512v-512c0-46-40-86-86-86h-340c-46 0-86 40-86 86z" />
<glyph unicode="&#xe958;" glyph-name="settings" d="M512 362c82 0 150 68 150 150s-68 150-150 150-150-68-150-150 68-150 150-150zM830 470l90-70c8-6 10-18 4-28l-86-148c-6-10-16-12-26-8l-106 42c-22-16-46-32-72-42l-16-112c-2-10-10-18-20-18h-172c-10 0-18 8-20 18l-16 112c-26 10-50 24-72 42l-106-42c-10-4-20-2-26 8l-86 148c-6 10-4 22 4 28l90 70c-2 14-2 28-2 42s0 28 2 42l-90 70c-8 6-10 18-4 28l86 148c6 10 16 12 26 8l106-42c22 16 46 32 72 42l16 112c2 10 10 18 20 18h172c10 0 18-8 20-18l16-112c26-10 50-24 72-42l106 42c10 4 20 2 26-8l86-148c6-10 4-22-4-28l-90-70c2-14 2-28 2-42s0-28-2-42z" />
<glyph unicode="&#xe959;" glyph-name="build" d="M968 214c18-12 18-42-4-60l-98-98c-18-18-42-18-60 0l-388 388c-98-38-212-18-294 64-86 86-108 214-56 316l188-184 128 128-184 184c102 46 230 30 316-56 82-82 102-196 64-294z" />
<glyph unicode="&#xe95a;" glyph-name="dns" d="M298 640c46 0 86 40 86 86s-40 84-86 84-84-38-84-84 38-86 84-86zM854 896c24 0 42-18 42-42v-256c0-24-18-44-42-44h-684c-24 0-42 20-42 44v256c0 24 18 42 42 42h684zM298 214c46 0 86 38 86 84s-40 86-86 86-84-40-84-86 38-84 84-84zM854 470c24 0 42-20 42-44v-256c0-24-18-42-42-42h-684c-24 0-42 18-42 42v256c0 24 18 44 42 44h684z" />
<glyph unicode="&#xe95b;" glyph-name="storage" d="M170 554v-84h86v84h-86zM86 426v172h852v-172h-852zM256 726v84h-86v-84h86zM86 854h852v-172h-852v172zM170 298v-84h86v84h-86zM86 170v172h852v-172h-852z" />
<glyph unicode="&#xe95c;" glyph-name="tune" d="M640 640v256h86v-86h170v-84h-170v-86h-86zM896 470h-426v84h426v-84zM298 640h86v-256h-86v86h-170v84h170v86zM554 128h-84v256h84v-86h342v-84h-342v-86zM128 810h426v-84h-426v84zM128 298h256v-84h-256v84z" />
<glyph unicode="&#xe95d;" glyph-name="power" d="M760 804c82-70 136-176 136-292 0-212-172-384-384-384s-384 172-384 384c0 116 54 222 136 292l60-60c-66-54-110-138-110-232 0-166 132-298 298-298s298 132 298 298c0 94-42 176-110 230zM554 896v-426h-84v426h84z" />
<glyph unicode="&#xe95e;" glyph-name="exit_to_app" d="M810 896c46 0 86-40 86-86v-596c0-46-40-86-86-86h-596c-48 0-86 40-86 86v170h86v-170h596v596h-596v-170h-86v170c0 46 38 86 86 86h596zM430 358l110 112h-412v84h412l-110 112 60 60 214-214-214-214z" />
<glyph unicode="&#xe95f;" glyph-name="input" d="M470 342v128h-428v84h428v128l170-170zM896 896c46 0 86-38 86-86v-598c0-46-40-84-86-84h-768c-46 0-86 38-86 84v172h86v-172h768v600h-768v-172h-86v170c0 46 40 86 86 86h768z" />
<glyph unicode="&#xe960;" glyph-name="open_in_new" d="M598 896h298v-298h-86v152l-418-418-60 60 418 418h-152v86zM810 214v298h86v-298c0-46-40-86-86-86h-596c-48 0-86 40-86 86v596c0 46 38 86 86 86h298v-86h-298v-596h596z" />
<glyph unicode="&#xe961;" glyph-name="system_update_alt" d="M896 874c46 0 86-38 86-84v-598c0-46-40-86-86-86h-768c-46 0-86 40-86 86v598c0 46 40 84 86 84h256v-84h-256v-598h768v598h-256v84h256zM512 320l-170 170h128v384h84v-384h128z" />
<glyph unicode="&#xe962;" glyph-name="backspace" d="M810 358l-152 154 152 154-60 60-152-154-154 154-60-60 154-154-154-154 60-60 154 154 152-154zM938 896c46 0 86-40 86-86v-596c0-46-40-86-86-86h-640c-30 0-52 16-68 38l-230 346 230 346c16 22 38 38 68 38h640z" />
<glyph unicode="&#xe963;" glyph-name="label" d="M752 774l186-262-186-262c-16-22-42-36-70-36h-468c-46 0-86 38-86 84v428c0 46 40 84 86 84h468c28 0 54-14 70-36z" />
<glyph unicode="&#xe964;" glyph-name="label_outline" d="M682 298l152 214-152 214h-468v-428h468zM752 774l186-262-186-262c-16-22-42-36-70-36h-468c-46 0-86 38-86 84v428c0 46 40 84 86 84h468c28 0 54-14 70-36z" />
<glyph unicode="&#xe965;" glyph-name="beenhere" d="M426 342l384 384-60 60-324-324-152 152-60-60zM810 982c46 0 86-40 86-86v-552c0-30-16-54-38-70l-346-232-346 232c-22 16-38 40-38 70v552c0 46 40 86 86 86h596z" />
<glyph unicode="&#xe966;" glyph-name="content_cut" d="M810 896h128v-42l-298-300-86 86zM512 490c12 0 22 10 22 22s-10 22-22 22-22-10-22-22 10-22 22-22zM256 170c46 0 86 38 86 86s-40 86-86 86-86-38-86-86 40-86 86-86zM256 682c46 0 86 38 86 86s-40 86-86 86-86-38-86-86 40-86 86-86zM412 698l526-528v-42h-128l-298 298-100-100c10-22 14-44 14-70 0-94-76-170-170-170s-170 76-170 170 76 170 170 170c26 0 48-4 70-14l100 100-100 100c-22-10-44-14-70-14-94 0-170 76-170 170s76 170 170 170 170-76 170-170c0-26-4-48-14-70z" />
<glyph unicode="&#xe967;" glyph-name="content_paste" d="M810 170v684h-84v-128h-428v128h-84v-684h596zM512 938c-24 0-42-18-42-42s18-42 42-42 42 18 42 42-18 42-42 42zM810 938c46 0 86-38 86-84v-684c0-46-40-84-86-84h-596c-46 0-86 38-86 84v684c0 46 40 84 86 84h178c18 50 64 86 120 86s102-36 120-86h178z" />
<glyph unicode="&#xe968;" glyph-name="link" d="M726 726c118 0 212-96 212-214s-94-214-212-214h-172v82h172c72 0 132 60 132 132s-60 132-132 132h-172v82h172zM342 470v84h340v-84h-340zM166 512c0-72 60-132 132-132h172v-82h-172c-118 0-212 96-212 214s94 214 212 214h172v-82h-172c-72 0-132-60-132-132z" />
<glyph unicode="&#xe969;" glyph-name="mailbox" d="M854 768c46 0 84-40 84-86v-512c0-46-38-84-84-84h-684c-46 0-84 38-84 84v512c0 46 38 86 84 86h86v256h342v-170h-256v-342h84v256h428z" />
<glyph unicode="&#xe96a;" glyph-name="inbox" d="M810 384v426h-598v-426h172c0-70 58-128 128-128s128 58 128 128h170zM810 896c46 0 86-38 86-86v-596c0-46-40-86-86-86h-598c-48 0-84 40-84 86v596c0 48 36 86 84 86h598z" />
<glyph unicode="&#xe96b;" glyph-name="markunread" d="M854 682v86l-342-214-342 214v-86l342-212zM854 854c46 0 84-40 84-86v-512c0-46-38-86-84-86h-684c-46 0-84 40-84 86v512c0 46 38 86 84 86h684z" />
<glyph unicode="&#xe96c;" glyph-name="mail_outline" d="M512 554l342 214h-684zM854 256v426l-342-212-342 212v-426h684zM854 854c46 0 84-40 84-86v-512c0-46-38-86-84-86h-684c-46 0-84 40-84 86v512c0 46 38 86 84 86h684z" />
<glyph unicode="&#xe96d;" glyph-name="drafts" d="M512 470l352 220-352 206-352-206zM938 682v-426c0-46-38-86-84-86h-684c-46 0-84 40-84 86v426c0 30 16 60 40 74l386 226 386-226c24-14 40-44 40-74z" />
<glyph unicode="&#xe96e;" glyph-name="unarchive" d="M218 810h588l-40 44h-512zM512 618l-234-234h148v-86h172v86h148zM876 802c12-14 20-36 20-56v-532c0-46-40-86-86-86h-596c-48 0-86 40-86 86v532c0 20 8 42 20 56l58 70c12 14 30 24 50 24h512c20 0 38-10 50-24z" />
<glyph unicode="&#xe96f;" glyph-name="archive" d="M218 810h588l-40 44h-512zM512 278l234 234h-148v86h-172v-86h-148zM876 800c12-14 20-34 20-54v-532c0-46-40-86-86-86h-596c-46 0-86 40-86 86v532c0 20 8 40 20 54l58 72c12 14 30 24 50 24h512c20 0 38-10 50-24z" />
<glyph unicode="&#xe970;" glyph-name="import_contacts" d="M896 234v492c-46 14-98 20-150 20-72 0-176-28-234-64v-490c58 36 162 64 234 64 52 0 104-8 150-22zM746 832c88.409 0 181.498-22.075 236-64v-622c0-10-12-22-22-22-4 0-6 0-10 2-60 32-134 44-204 44-72 0-176-28-234-64-62 46-150 64-234 64-62 0-146-18-204-46-4 0-6-2-10-2-10 0-22 10-22 20v626c62 46 152 64 236 64s172-18 234-64c62 46 150 64 234 64z" />
<glyph unicode="&#xe971;" glyph-name="insert_drive_file" d="M554 640h236l-236 234v-234zM256 938h342l256-256v-512c0-46-40-84-86-84h-512c-46 0-86 38-86 84l2 684c0 46 38 84 84 84z" />
<glyph unicode="&#xe972;" glyph-name="note_add" d="M554 640h236l-236 234v-234zM682 342v84h-128v128h-84v-128h-128v-84h128v-128h84v128h128zM598 938l256-256v-512c0-46-40-84-86-84h-512c-46 0-86 38-86 84l2 684c0 46 38 84 84 84h342z" />
<glyph unicode="&#xe973;" glyph-name="description" d="M554 640h236l-236 234v-234zM682 426v86h-340v-86h340zM682 256v86h-340v-86h340zM598 938l256-256v-512c0-46-40-84-86-84h-512c-46 0-86 38-86 84l2 684c0 46 38 84 84 84h342z" />
<glyph unicode="&#xe974;" glyph-name="find_in_page" d="M384 470c0 70 58 128 128 128s128-58 128-128-58-128-128-128-128 58-128 128zM854 188l-164 164c22 34 36 74 36 118 0 118-96 212-214 212s-214-94-214-212 96-214 214-214c44 0 84 14 118 36l188-190c-14-10-30-16-50-16h-512c-46 0-86 38-86 84l2 684c0 46 38 84 84 84h342l256-256v-494z" />
<glyph unicode="&#xe975;" glyph-name="folder_open" d="M854 256v426h-684v-426h684zM854 768c46 0 84-40 84-86v-426c0-46-38-86-84-86h-684c-46 0-84 40-84 86v512c0 46 38 86 84 86h256l86-86h342z" />
<glyph unicode="&#xe976;" glyph-name="folder" d="M426 854l86-86h342c46 0 84-40 84-86v-426c0-46-38-86-84-86h-684c-46 0-84 40-84 86v512c0 46 38 86 84 86h256z" />
<glyph unicode="&#xe977;" glyph-name="create_new_folder" d="M810 426v86h-128v128h-84v-128h-128v-86h128v-128h84v128h128zM854 768c48 0 84-38 84-86v-426c0-48-36-86-84-86h-684c-48 0-84 38-84 86v512c0 48 36 86 84 86h256l86-86h342z" />
<glyph unicode="&#xe978;" glyph-name="account_balance" d="M490 982l406-214v-86h-810v86zM682 598h128v-300h-128v300zM86 86v128h810v-128h-810zM426 598h128v-300h-128v300zM170 598h128v-300h-128v300z" />
<glyph unicode="&#xe979;" glyph-name="business_center" d="M598 726v84h-172v-84h172zM854 726c46 0 84-40 84-86v-128c0-46-38-86-84-86h-256v86h-172v-86h-256c-48 0-84 38-84 86v128c0 46 38 86 84 86h170v84l86 86h170l86-86v-84h172zM426 342h172v42h298v-170c0-48-38-86-86-86h-596c-48 0-86 38-86 86v170h298v-42z" />
<glyph unicode="&#xe97a;" glyph-name="work" d="M598 768v86h-172v-86h172zM854 768c48 0 84-38 84-86v-468c0-48-36-86-84-86h-684c-48 0-84 38-84 86v468c0 48 36 86 84 86h172v86c0 48 36 84 84 84h172c48 0 84-36 84-84v-86h172z" />
<glyph unicode="&#xe97b;" glyph-name="account_balance_wallet" d="M682 448c36 0 64 28 64 64s-28 64-64 64-64-28-64-64 28-64 64-64zM512 342v340h426v-340h-426zM896 256v-42c0-46-40-86-86-86h-596c-48 0-86 40-86 86v596c0 46 38 86 86 86h596c46 0 86-40 86-86v-42h-384c-48 0-86-40-86-86v-340c0-46 38-86 86-86h384z" />
<glyph unicode="&#xe97c;" glyph-name="payment" d="M854 682v86h-684v-86h684zM854 256v256h-684v-256h684zM854 854c48 0 84-38 84-86v-512c0-48-36-86-84-86h-684c-48 0-84 38-84 86v512c0 48 36 86 84 86h684z" />
<glyph unicode="&#xe97d;" glyph-name="functions" d="M768 854v-128h-298l212-214-212-214h298v-128h-512v86l278 256-278 256v86h512z" />
<glyph unicode="&#xe97e;" glyph-name="attach_money" d="M504 558c96-26 200-64 200-186 0-88-66-136-150-152v-92h-128v92c-82 18-150 70-156 164h94c4-50 38-90 126-90 94 0 116 46 116 76 0 40-22 78-128 104-120 28-200 78-200 176 0 82 66 136 148 154v92h128v-94c90-22 136-88 138-162h-94c-2 54-32 90-108 90-72 0-114-34-114-80 0-40 32-66 128-92z" />
<glyph unicode="&#xe97f;" glyph-name="euro_symbol" d="M640 234c70 0 132 26 180 68l76-76c-68-62-158-98-256-98-168 0-310 108-362 256h-150v86h130c-2 14-2 28-2 42s0 28 2 42h-130v86h150c52 148 194 256 362 256 98 0 188-36 256-98l-76-76c-48 42-112 68-180 68-106 0-200-62-246-150h246v-86h-274c-2-14-4-28-4-42s2-28 4-42h274v-86h-246c46-88 138-150 246-150z" />
<glyph unicode="&#xe980;" glyph-name="local_atm" d="M854 256v512h-684v-512h684zM854 854c48 0 84-38 84-86v-512c0-48-36-86-84-86h-684c-48 0-84 38-84 86v512c0 48 36 86 84 86h684zM470 298v44h-86v84h170v44h-128c-24 0-42 18-42 42v128c0 24 18 42 42 42h44v44h84v-44h86v-84h-170v-44h128c24 0 42-18 42-42v-128c0-24-18-42-42-42h-44v-44h-84z" />
<glyph unicode="&#xe981;" glyph-name="key" d="M298 426c46 0 86 40 86 86s-40 86-86 86-84-40-84-86 38-86 84-86zM540 598h442v-172h-86v-170h-170v170h-186c-34-100-130-170-242-170-142 0-256 114-256 256s114 256 256 256c112 0 208-70 242-170z" />
<glyph unicode="&#xe982;" glyph-name="local_offer" d="M234 726c36 0 64 28 64 64s-28 64-64 64-64-28-64-64 28-64 64-64zM914 530c16-16 24-36 24-60s-8-44-24-60l-300-300c-16-16-36-24-60-24s-44 8-60 24l-384 384c-16 16-24 36-24 60v300c0 46 38 84 84 84h300c24 0 44-8 60-24z" />
<glyph unicode="&#xe983;" glyph-name="favorite" d="M512 114l-62 56c-220 200-364 330-364 492 0 132 102 234 234 234 74 0 146-36 192-90 46 54 118 90 192 90 132 0 234-102 234-234 0-162-144-294-364-494z" />
<glyph unicode="&#xe984;" glyph-name="favorite_border" d="M516 232c204 184 338 306 338 430 0 86-64 148-150 148-66 0-130-42-152-100h-80c-22 58-86 100-152 100-86 0-150-62-150-148 0-124 134-246 338-430l4-4zM704 896c132 0 234-102 234-234 0-162-144-292-364-492l-62-56-62 54c-220 200-364 332-364 494 0 132 102 234 234 234 74 0 146-36 192-90 46 54 118 90 192 90z" />
<glyph unicode="&#xe985;" glyph-name="star" d="M512 288l-264-160 70 300-232 202 306 26 120 282 120-282 306-26-232-202 70-300z" />
<glyph unicode="&#xe986;" glyph-name="star_border" d="M512 366l160-96-42 182 142 124-188 16-72 172-72-172-188-16 142-124-42-182zM938 630l-232-202 70-300-264 160-264-160 70 300-232 202 306 26 120 282 120-282z" />
<glyph unicode="&#xe987;" glyph-name="star_half" d="M512 366l160-96-42 182 142 124-188 16-72 172v-398zM938 630l-232-202 70-300-264 160-264-160 70 300-232 202 306 26 120 282 120-282z" />
<glyph unicode="&#xe988;" glyph-name="turned_in" d="M726 896c46 0 84-40 84-86v-682l-298 128-298-128v682c0 46 38 86 84 86h428z" />
<glyph unicode="&#xe989;" glyph-name="turned_in_not" d="M726 256v554h-428v-554l214 94zM726 896c46 0 84-40 84-86v-682l-298 128-298-128v682c0 46 38 86 84 86h428z" />
<glyph unicode="&#xe98a;" glyph-name="thumb_down" d="M810 896h172v-512h-172v512zM640 896c46 0 86-40 86-86v-426c0-24-10-44-26-60l-280-282-46 46c-12 12-18 26-18 44v14l42 196h-270c-46 0-86 38-86 84l2 4h-2v82c0 12 2 22 6 32l130 300c12 30 42 52 78 52h384z" />
<glyph unicode="&#xe98b;" glyph-name="thumb_up" d="M982 598l-2-4h2v-82c0-12-2-22-6-32l-130-300c-12-30-42-52-78-52h-384c-46 0-86 40-86 86v426c0 24 10 44 26 60l280 282 46-46c12-12 18-26 18-44v-14l-42-196h270c46 0 86-38 86-84zM42 128v512h172v-512h-172z" />
<glyph unicode="&#xe98c;" glyph-name="thumbs_up_down" d="M960 598c36 0 64-28 64-64v-278c0-18-6-34-18-46l-212-210-34 34c-8 8-14 20-14 34 9.903 48.764 20.016 97.317 30 146h-222c-24 0-42 18-42 42v54c0 8 2 14 4 22l98 226c10 22 32 40 58 40h288zM512 768v-54c0-8-2-14-4-22l-98-226c-10-22-32-40-58-40h-288c-36 0-64 28-64 64v278c0 18 6 34 18 46l212 210 34-34c8-8 14-20 14-34-9.903-48.764-20.016-97.317-30-146h222c24 0 42-18 42-42z" />
<glyph unicode="&#xe98d;" glyph-name="home" d="M426 170h-212v342h-128l426 384 426-384h-128v-342h-212v256h-172v-256z" />
<glyph unicode="&#xe98e;" glyph-name="flag" d="M614 768h240v-426h-300l-16 84h-240v-298h-84v726h384z" />
<glyph unicode="&#xe98f;" glyph-name="lightbulb_outline" d="M634 466c58 40 92 104 92 174 0 118-96 214-214 214s-214-96-214-214c0-70 34-134 92-174l36-26v-98h172v98zM512 938c164 0 298-134 298-298 0-102-50-190-128-244v-98c0-24-18-42-42-42h-256c-24 0-42 18-42 42v98c-78 54-128 142-128 244 0 164 134 298 298 298zM384 128v42h256v-42c0-24-18-42-42-42h-172c-24 0-42 18-42 42z" />
<glyph unicode="&#xe990;" glyph-name="style" d="M250 182v270l148-356h-62c-46 0-86 40-86 86zM336 650c24 0 42 20 42 44s-18 42-42 42-42-18-42-42 18-44 42-44zM940 344c18-44-2-94-46-112l-314-130c-10-4-22-6-34-6-34 0-64 20-78 52l-212 512c-4 12-6 22-6 34 0 32 20 62 52 76l316 130c12 4 22 6 34 6 32 0 62-20 76-52zM108 186c-44 18-64 66-46 110l104 250v-384z" />
<glyph unicode="&#xe991;" glyph-name="palette" d="M746 512c36 0 64 28 64 64s-28 64-64 64-64-28-64-64 28-64 64-64zM618 682c36 0 64 28 64 64s-28 64-64 64-64-28-64-64 28-64 64-64zM406 682c36 0 64 28 64 64s-28 64-64 64-64-28-64-64 28-64 64-64zM278 512c36 0 64 28 64 64s-28 64-64 64-64-28-64-64 28-64 64-64zM512 896c212 0 384-154 384-342 0-118-96-212-214-212h-74c-36 0-64-28-64-64 0-16 6-30 16-42s16-28 16-44c0-36-28-64-64-64-212 0-384 172-384 384s172 384 384 384z" />
<glyph unicode="&#xe992;" glyph-name="photo" d="M362 448l-148-192h596l-192 256-148-192zM896 214c0-46-40-86-86-86h-596c-46 0-86 40-86 86v596c0 46 40 86 86 86h596c46 0 86-40 86-86v-596z" />
<glyph unicode="&#xe993;" glyph-name="photo_camera" d="M512 298c118 0 214 96 214 214s-96 214-214 214-214-96-214-214 96-214 214-214zM384 938h256l78-84h136c46 0 84-40 84-86v-512c0-46-38-86-84-86h-684c-46 0-84 40-84 86v512c0 46 38 86 84 86h136zM376 512c0 76 60 136 136 136s136-60 136-136-60-136-136-136-136 60-136 136z" />
<glyph unicode="&#xe994;" glyph-name="extension" d="M874 554c58 0 108-48 108-106s-50-106-108-106h-64v-172c0-46-38-84-84-84h-162v64c0 64-52 114-116 114s-116-50-116-114v-64h-162c-46 0-84 38-84 84v162h64c64 0 114 52 114 116s-50 116-114 116h-64v162c0 46 38 84 84 84h172v64c0 58 48 108 106 108s106-50 106-108v-64h172c46 0 84-38 84-84v-172h64z" />
<glyph unicode="&#xe995;" glyph-name="straighten" d="M896 342v340h-86v-170h-84v170h-86v-170h-86v170h-84v-170h-86v170h-86v-170h-84v170h-86v-340h768zM896 768c46 0 86-40 86-86v-340c0-46-40-86-86-86h-768c-46 0-86 40-86 86v340c0 46 40 86 86 86h768z" />
<glyph unicode="&#xe996;" glyph-name="receipt" d="M128 86v852l64-64 64 64 64-64 64 64 64-64 64 64 64-64 64 64 64-64 64 64 64-64 64 64v-852l-64 64-64-64-64 64-64-64-64 64-64-64-64 64-64-64-64 64-64-64-64 64zM768 640v86h-512v-86h512zM768 470v84h-512v-84h512zM768 298v86h-512v-86h512z" />
<glyph unicode="&#xe997;" glyph-name="share" d="M768 338c68 0 124-56 124-124s-56-126-124-126-124 58-124 126c0 10 0 20 2 28l-302 176c-24-22-54-34-88-34-70 0-128 58-128 128s58 128 128 128c34 0 64-12 88-34l300 174c-2 10-4 20-4 30 0 70 58 128 128 128s128-58 128-128-58-128-128-128c-34 0-64 14-88 36l-300-176c2-10 4-20 4-30s-2-20-4-30l304-176c22 20 52 32 84 32z" />
<glyph unicode="&#xe998;" glyph-name="colorize" d="M296 214l344 344-82 82-344-344zM884 784c16-16 18-42 0-60l-134-134 82-82-60-60-60 60-382-380h-202v202l380 382-60 60 60 60 82-82 134 134c16 16 44 16 60 0z" />
<glyph unicode="&#xe999;" glyph-name="attach_file" d="M704 768h64v-490c0-130-104-236-234-236s-236 106-236 236v532c0 94 78 172 172 172s170-78 170-172v-448c0-58-48-106-106-106s-108 48-108 106v406h64v-406c0-24 20-42 44-42s42 18 42 42v448c0 58-48 108-106 108s-108-50-108-108v-532c0-94 78-172 172-172s170 78 170 172v490z" />
<glyph unicode="&#xe99a;" glyph-name="attachment" d="M86 490c0 130 104 236 234 236h448c94 0 170-78 170-172s-76-170-170-170h-362c-58 0-108 48-108 106s50 108 108 108h320v-86h-324c-24 0-24-42 0-42h366c46 0 86 38 86 84s-40 86-86 86h-448c-82 0-150-68-150-150s68-148 150-148h406v-86h-406c-130 0-234 104-234 234z" />
<glyph unicode="&#xe99b;" glyph-name="bug_report" d="M598 512v86h-172v-86h172zM598 342v84h-172v-84h172zM854 682v-84h-90c2-14 4-30 4-44v-42h86v-86h-86v-42c0-14-2-28-4-42h90v-86h-120c-44-76-128-128-222-128s-178 52-222 128h-120v86h90c-2 14-4 28-4 42v42h-86v86h86v42c0 14 2 30 4 44h-90v84h120c20 34 46 62 78 84l-70 70 60 60 94-92c20 4 40 6 60 6s40-2 60-6l94 92 60-60-70-70c32-22 58-50 78-84h120z" />
<glyph unicode="&#xe99c;" glyph-name="security" d="M512 982l384-172v-256c0-236-164-458-384-512-220 54-384 276-384 512v256zM512 512v-382c158 50 276 206 298 382h-298zM512 512v376l-298-132v-244h298z" />
<glyph unicode="&#xe99d;" glyph-name="verified_user" d="M426 298l342 342-60 60-282-280-110 110-60-60zM512 982l384-172v-256c0-236-164-458-384-512-220 54-384 276-384 512v256z" />
<glyph unicode="&#xe99e;" glyph-name="vpn_lock" d="M426 130v84c-46 0-84 38-84 84v44l-206 204c-6-24-8-50-8-76 0-174 130-320 298-340zM808 512h86c2-14 2-28 2-42 0-236-190-428-426-428s-428 192-428 428 192 426 428 426c44 0 88-8 128-20v-108c0-46-40-86-86-86h-86v-84c0-24-18-44-42-44h-86v-84h256c24 0 44-20 44-44v-128h42c38 0 70-24 82-58 56 60 88 142 88 230 0 14 0 28-2 42zM904 854v20c0 40-32 74-72 74s-72-34-72-74v-20h144zM938 854c24 0 44-20 44-44v-170c0-24-20-42-44-42h-212c-24 0-44 18-44 42v170c0 24 20 44 44 44v20c0 58 48 108 106 108s106-50 106-108v-20z" />
<glyph unicode="&#xe99f;" glyph-name="public" d="M764 282c56 60 90 142 90 230 0 142-88 266-214 316v-18c0-46-40-84-86-84h-84v-86c0-24-20-42-44-42h-84v-86h256c24 0 42-18 42-42v-128h42c38 0 70-26 82-60zM470 174v82c-46 0-86 40-86 86v42l-204 204c-6-24-10-50-10-76 0-174 132-318 300-338zM512 938c236 0 426-190 426-426s-190-426-426-426-426 190-426 426 190 426 426 426z" />
<glyph unicode="&#xe9a0;" glyph-name="map" d="M640 214v506l-256 90v-506zM874 896c12 0 22-10 22-22v-644c0-10-8-18-16-20l-240-82-256 90-228-88-6-2c-12 0-22 10-22 22v644c0 10 8 18 16 20l240 82 256-90 228 88z" />
<glyph unicode="&#xe9a1;" glyph-name="near_me" d="M896 896l-322-768h-42l-112 292-292 112v42z" />
<glyph unicode="&#xe9a2;" glyph-name="room" d="M512 534c58 0 106 48 106 106s-48 106-106 106-106-48-106-106 48-106 106-106zM512 938c166 0 298-132 298-298 0-224-298-554-298-554s-298 330-298 554c0 166 132 298 298 298z" />
<glyph unicode="&#xe9a3;" glyph-name="location_off" d="M500 534c118.353-116.98 236.568-234.098 354-352l-54-54-144 142c-72-106-144-184-144-184s-298 330-298 554c0 22 4 44 8 66l-136 136 54 54 356-356zM512 746c-32 0-58-14-78-36l-138 136c54 56 132 92 216 92 166 0 298-132 298-298 0-72-30-154-72-234l-154 156c22 20 34 46 34 78 0 58-48 106-106 106z" />
<glyph unicode="&#xe9a4;" glyph-name="explore" d="M606 418l162 350-350-162-162-350zM512 938c236 0 426-190 426-426s-190-426-426-426-426 190-426 426 190 426 426 426zM512 558c26 0 46-20 46-46s-20-46-46-46-46 20-46 46 20 46 46 46z" />
<glyph unicode="&#xe9a5;" glyph-name="wb_cloudy" d="M826 596c110-8 198-100 198-212 0-118-96-214-214-214h-554c-142 0-256 114-256 256 0 132 100 240 228 254 54 102 160 174 284 174 156 0 284-110 314-258z" />
<glyph unicode="&#xe9a6;" glyph-name="cloud_done" d="M426 298l282 282-60 60-222-220-88 88-60-60zM826 596c110-8 198-100 198-212 0-118-96-214-214-214h-554c-142 0-256 114-256 256 0 132 100 240 228 254 54 102 160 174 284 174 156 0 284-110 314-258z" />
<glyph unicode="&#xe9a7;" glyph-name="cloud_upload" d="M598 470h128l-214 212-214-212h128v-172h172v172zM826 596c110-8 198-100 198-212 0-118-96-214-214-214h-554c-142 0-256 114-256 256 0 132 100 240 228 254 54 102 160 174 284 174 156 0 284-110 314-258z" />
<glyph unicode="&#xe9a8;" glyph-name="cloud_download" d="M726 470h-128v170h-172v-170h-128l214-214zM826 596c110-8 198-100 198-212 0-118-96-214-214-214h-554c-142 0-256 114-256 256 0 132 100 240 228 254 54 102 160 174 284 174 156 0 284-110 314-258z" />
<glyph unicode="&#xe9a9;" glyph-name="cloud_off" d="M330 598h-74c-94 0-170-78-170-172s76-170 170-170h416zM128 800l54 54 714-714-54-54-86 84h-500c-142 0-256 114-256 256 0 138 110 250 246 256zM826 596c110-8 198-100 198-212 0-72-36-136-90-174l-62 62c40 22 66 64 66 112 0 70-58 128-128 128h-64v22c0 130-104 234-234 234-40 0-76-8-108-26l-64 62c50 32 108 50 172 50 156 0 284-110 314-258z" />
<glyph unicode="&#xe9aa;" glyph-name="cloud_queue" d="M810 256c70 0 128 58 128 128s-58 128-128 128h-64v22c0 130-104 234-234 234-108 0-198-72-226-170h-30c-94 0-170-78-170-172s76-170 170-170h554zM826 596c110-8 198-100 198-212 0-118-96-214-214-214h-554c-142 0-256 114-256 256 0 132 100 240 228 254 54 102 160 174 284 174 156 0 284-110 314-258z" />
<glyph unicode="&#xe9ab;" glyph-name="access_alarms" d="M512 170c166 0 298 134 298 300s-132 298-298 298-298-132-298-298 132-300 298-300zM512 854c214 0 384-170 384-384s-170-384-384-384-384 170-384 384 170 384 384 384zM534 682v-226l170-102-34-52-200 124v256h64zM338 878l-198-162-54 64 196 162zM938 780l-54-64-198 168 56 64z" />
<glyph unicode="&#xe9ac;" glyph-name="alarm_on" d="M450 404l210 212 46-46-256-256-136 136 44 44zM512 170c166 0 298 134 298 300s-132 298-298 298-298-132-298-298 132-300 298-300zM512 854c212 0 384-172 384-384s-172-384-384-384-384 172-384 384 172 384 384 384zM336 880l-196-164-54 64 196 164zM938 780l-54-66-196 166 54 64z" />
<glyph unicode="&#xe9ad;" glyph-name="alarm_off" d="M342 884l-36-30-62 60 38 30zM702 240l-420 420c-42-52-68-118-68-190 0-166 132-300 298-300 72 0 138 28 190 70zM124 926c262.552-262.114 525.354-523.98 788-786l-54-54-94 94c-68-58-156-94-252-94-212 0-384 172-384 384 0 96 36 182 94 250l-34 34-48-40-60 62 48 38-58 58zM938 780l-54-66-196 166 54 64zM512 768c-36 0-70-6-102-18l-66 64c50 24 108 40 168 40 212 0 384-172 384-384 0-60-14-118-38-168l-66 64c12 32 18 68 18 104 0 166-132 298-298 298z" />
<glyph unicode="&#xe9ae;" glyph-name="timer" d="M512 170c166 0 298 134 298 300s-132 298-298 298-298-132-298-298 132-300 298-300zM812 708c52-66 84-148 84-238 0-212-172-384-384-384s-384 172-384 384 172 384 384 384c90 0 174-34 240-86l60 62c22-18 42-38 60-60zM470 426v256h84v-256h-84zM640 982v-86h-256v86h256z" />
<glyph unicode="&#xe9af;" glyph-name="timer_off" d="M512 170c54 0 106 16 150 42l-408 408c-26-44-40-96-40-150 0-166 132-300 298-300zM128 854l758-758-54-54-108 108c-62-40-134-64-212-64-212 0-384 172-384 384 0 78 24 152 64 212l-118 118zM470 622v60h84v-146zM640 982v-86h-256v86h256zM812 830l60-60-60-62c52-66 84-148 84-238 0-78-24-152-64-212l-62 62c26 44 40 96 40 150 0 166-132 298-298 298-54 0-104-14-148-40l-64 62c60 40 134 64 212 64 90 0 174-32 240-84z" />
<glyph unicode="&#xe9b0;" glyph-name="restore" d="M512 682h64v-180l150-90-32-52-182 110v212zM554 896c212 0 384-172 384-384s-172-384-384-384c-106 0-200 42-270 112l60 62c54-54 128-88 210-88 166 0 300 132 300 298s-134 298-300 298-298-132-298-298h128l-172-172-4 6-166 166h128c0 212 172 384 384 384z" />
<glyph unicode="&#xe9b1;" glyph-name="schedule" d="M534 726v-224l192-114-32-54-224 136v256h64zM512 170c188 0 342 154 342 342s-154 342-342 342-342-154-342-342 154-342 342-342zM512 938c236 0 426-190 426-426s-190-426-426-426-426 190-426 426 190 426 426 426z" />
<glyph unicode="&#xe9b2;" glyph-name="watch_later" d="M692 332l34 56-192 116v222h-64v-256zM512 938c234 0 426-192 426-426s-192-426-426-426-426 192-426 426 192 426 426 426z" />
<glyph unicode="&#xe9b3;" glyph-name="timelapse" d="M512 170c188 0 342 154 342 342s-154 342-342 342-342-154-342-342 154-342 342-342zM512 938c236 0 426-190 426-426s-190-426-426-426-426 190-426 426 190 426 426 426zM692 692c100-100 102-260 2-360s-262-100-362 0l180 180v256c66 0 130-26 180-76z" />
<glyph unicode="&#xe9b4;" glyph-name="watch" d="M256 512c0-142 114-256 256-256s256 114 256 256-114 256-256 256-256-114-256-256zM854 512c0-108-52-206-130-268l-42-244h-340l-42 244c-80 62-130 160-130 268s50 206 130 268l42 244h340l42-244c78-62 130-160 130-268z" />
<glyph unicode="&#xe9b5;" glyph-name="hourglass_empty" d="M512 534l170 170v150h-340v-150zM682 320l-170 170-170-170v-150h340v150zM256 938h512v-256l-170-170 170-170v-256h-512v256l170 170-170 170v256z" />
<glyph unicode="&#xe9b6;" glyph-name="hourglass_full" d="M256 938h512v-256l-170-170 170-170v-256h-512v256l170 170-170 170v256z" />
<glyph unicode="&#xe9b7;" glyph-name="today" d="M298 598h214v-214h-214v214zM810 214v468h-596v-468h596zM810 896c46 0 86-40 86-86v-596c0-46-40-86-86-86h-596c-48 0-86 40-86 86v596c0 46 38 86 86 86h42v86h86v-86h340v86h86v-86h42z" />
<glyph unicode="&#xe9b8;" glyph-name="insert_invitation" d="M810 214v468h-596v-468h596zM682 982h86v-86h42c46 0 86-40 86-86v-596c0-46-40-86-86-86h-596c-48 0-86 40-86 86v596c0 46 38 86 86 86h42v86h86v-86h340v86zM726 512v-214h-214v214h214z" />
<glyph unicode="&#xe9b9;" glyph-name="event_available" d="M810 214v468h-596v-468h596zM810 896c46 0 86-40 86-86v-596c0-46-40-86-86-86h-596c-48 0-86 40-86 86v596c0 46 38 86 86 86h42v86h86v-86h340v86h86v-86h42zM706 552l-254-254-136 136 46 46 90-90 208 208z" />
<glyph unicode="&#xe9ba;" glyph-name="event_busy" d="M810 214v468h-596v-468h596zM810 896c46 0 86-40 86-86v-596c0-46-40-86-86-86h-596c-48 0-86 40-86 86v596c0 46 38 86 86 86h42v86h86v-86h340v86h86v-86h42zM398 298l-46 46 104 104-104 104 46 46 104-104 104 104 44-46-104-104 104-104-44-46-104 104z" />
<glyph unicode="&#xe9bb;" glyph-name="event_note" d="M598 426v-84h-300v84h300zM810 214v468h-596v-468h596zM810 896c46 0 86-40 86-86v-596c0-46-40-86-86-86h-596c-48 0-86 40-86 86v596c0 46 38 86 86 86h42v86h86v-86h340v86h86v-86h42zM726 598v-86h-428v86h428z" />
<glyph unicode="&#xe9bc;" glyph-name="date_range" d="M810 170v470h-596v-470h596zM810 854c46 0 86-40 86-86v-598c0-46-40-84-86-84h-596c-48 0-86 38-86 84v598c0 46 38 86 86 86h42v84h86v-84h340v84h86v-84h42zM726 554v-84h-86v84h86zM554 554v-84h-84v84h84zM384 554v-84h-86v84h86z" />
<glyph unicode="&#xe9bd;" glyph-name="flash_off" d="M726 598l-66-114-362 362v92h428l-172-340h172zM140 896l670-672-54-54-176 178-154-262v384h-128v158l-212 214z" />
<glyph unicode="&#xe9be;" glyph-name="flash_on" d="M298 938h428l-172-340h172l-300-512v384h-128v468z" />
<glyph unicode="&#xe9bf;" glyph-name="person" d="M512 426c114 0 342-56 342-170v-86h-684v86c0 114 228 170 342 170zM512 512c-94 0-170 76-170 170s76 172 170 172 170-78 170-172-76-170-170-170z" />
<glyph unicode="&#xe9c0;" glyph-name="account_box" d="M256 298v-42h512v42c0 86-170 132-256 132s-256-46-256-132zM640 640c0 70-58 128-128 128s-128-58-128-128 58-128 128-128 128 58 128 128zM128 810c0 46 38 86 86 86h596c46 0 86-40 86-86v-596c0-46-40-86-86-86h-596c-48 0-86 40-86 86v596z" />
<glyph unicode="&#xe9c1;" glyph-name="person_add" d="M640 426c114 0 342-56 342-170v-86h-684v86c0 114 228 170 342 170zM256 598h128v-86h-128v-128h-86v128h-128v86h128v128h86v-128zM640 512c-94 0-170 76-170 170s76 172 170 172 170-78 170-172-76-170-170-170z" />
<glyph unicode="&#xe9c2;" glyph-name="people" d="M682 470c100 0 300-50 300-150v-106h-256v106c0 64-34 112-84 148 14 2 28 2 40 2zM342 470c100 0 298-50 298-150v-106h-598v106c0 100 200 150 300 150zM342 554c-70 0-128 58-128 128s58 128 128 128 126-58 126-128-56-128-126-128zM682 554c-70 0-128 58-128 128s58 128 128 128 128-58 128-128-58-128-128-128z" />
<glyph unicode="&#xe9c3;" glyph-name="group_add" d="M554 470c86 0 256-42 256-128v-86h-512v86c0 86 170 128 256 128zM838 462c86-14 186-54 186-120v-86h-128v86c0 50-22 88-58 120zM554 554c-70 0-128 58-128 128s58 128 128 128 128-58 128-128-58-128-128-128zM768 554c-14 0-26 2-38 6 24 34 38 76 38 122s-14 88-38 122c12 4 24 6 38 6 70 0 128-58 128-128s-58-128-128-128zM342 598v-86h-128v-128h-86v128h-128v86h128v128h86v-128h128z" />
<glyph unicode="&#xe9c4;" glyph-name="lock" d="M644 682v86c0 72-60 132-132 132s-132-60-132-132v-86h264zM512 298c46 0 86 40 86 86s-40 86-86 86-86-40-86-86 40-86 86-86zM768 682c46 0 86-38 86-84v-428c0-46-40-84-86-84h-512c-46 0-86 38-86 84v428c0 46 40 84 86 84h42v86c0 118 96 214 214 214s214-96 214-214v-86h42z" />
<glyph unicode="&#xe9c5;" glyph-name="enhanced_encryption" d="M682 342v84h-128v128h-84v-128h-128v-84h128v-128h84v128h128zM380 768v-86h264v86c0 72-60 132-132 132s-132-60-132-132zM768 682c46 0 86-38 86-84v-428c0-46-40-84-86-84h-512c-46 0-86 38-86 84v428c0 46 40 84 86 84h42v86c0 118 96 214 214 214s214-96 214-214v-86h42z" />
<glyph unicode="&#xe9c6;" glyph-name="no_encryption" d="M380 768v-52l-78 78c12 106 100 188 210 188 118 0 214-96 214-214v-86h42c46 0 86-38 86-84v-356l-442 440h232v86c0 72-60 132-132 132s-132-60-132-132zM896 94l-52-52-48 48c-8-2-18-4-28-4h-512c-46 0-86 38-86 84v428c0 32 20 60 46 74l-88 86 52 52z" />
<glyph unicode="&#xe9c7;" glyph-name="lock_open" d="M768 170v428h-512v-428h512zM768 682c46 0 86-38 86-84v-428c0-46-40-84-86-84h-512c-46 0-86 38-86 84v428c0 46 40 84 86 84h388v86c0 72-60 132-132 132s-132-60-132-132h-82c0 118 96 214 214 214s214-96 214-214v-86h42zM512 298c-46 0-86 40-86 86s40 86 86 86 86-40 86-86-40-86-86-86z" />
<glyph unicode="&#xe9c8;" glyph-name="lock_outline" d="M768 170v428h-512v-428h512zM380 768v-86h264v86c0 72-60 132-132 132s-132-60-132-132zM768 682c46 0 86-38 86-84v-428c0-46-40-84-86-84h-512c-46 0-86 38-86 84v428c0 46 40 84 86 84h42v86c0 118 96 214 214 214s214-96 214-214v-86h42zM512 298c-46 0-86 40-86 86s40 86 86 86 86-40 86-86-40-86-86-86z" />
<glyph unicode="&#xe9c9;" glyph-name="keyboard" d="M810 598v84h-84v-84h84zM810 470v84h-84v-84h84zM682 598v84h-84v-84h84zM682 470v84h-84v-84h84zM682 298v86h-340v-86h340zM298 598v84h-84v-84h84zM298 470v84h-84v-84h84zM342 554v-84h84v84h-84zM342 682v-84h84v84h-84zM470 554v-84h84v84h-84zM470 682v-84h84v84h-84zM854 810c46 0 84-38 84-84v-428c0-46-38-84-84-84h-684c-46 0-84 38-84 84v428c0 46 38 84 84 84h684z" />
<glyph unicode="&#xe9ca;" glyph-name="phone" d="M282 564c62-120 162-220 282-282l94 94c12 12 30 16 44 10 48-16 100-24 152-24 24 0 42-18 42-42v-150c0-24-18-42-42-42-400 0-726 326-726 726 0 24 18 42 42 42h150c24 0 42-18 42-42 0-54 8-104 24-152 4-14 2-32-10-44z" />
<glyph unicode="&#xe9cb;" glyph-name="call_end" d="M512 640c-68 0-134-10-196-30v-132c0-16-10-34-24-40-42-20-80-46-114-78-8-8-18-12-30-12s-22 4-30 12l-106 106c-8 8-12 18-12 30s4 22 12 30c130 124 306 200 500 200s370-76 500-200c8-8 12-18 12-30s-4-22-12-30l-106-106c-8-8-18-12-30-12s-22 4-30 12c-34 32-72 58-114 78-14 6-24 20-24 38v132c-62 20-128 32-196 32z" />
<glyph unicode="&#xe9cc;" glyph-name="keyboard_voice" d="M738 512h72c0-146-116-266-256-286v-140h-84v140c-140 20-256 140-256 286h72c0-128 108-218 226-218s226 90 226 218zM512 384c-70 0-128 58-128 128v256c0 70 58 128 128 128s128-58 128-128v-256c0-70-58-128-128-128z" />
<glyph unicode="&#xe9cd;" glyph-name="language" d="M698 426h144c6 28 12 56 12 86s-6 58-12 86h-144c4-28 6-56 6-86s-2-58-6-86zM622 190c78 26 146 82 186 152h-126c-14-54-34-104-60-152zM612 426c4 28 6 56 6 86s-2 58-6 86h-200c-4-28-6-56-6-86s2-58 6-86h200zM512 172c36 52 64 108 82 170h-164c18-62 46-118 82-170zM342 682c14 54 34 104 60 152-78-26-146-82-186-152h126zM216 342c40-70 108-126 186-152-26 48-46 98-60 152h-126zM182 426h144c-4 28-6 56-6 86s2 58 6 86h-144c-6-28-12-56-12-86s6-58 12-86zM512 852c-36-52-64-108-82-170h164c-18 62-46 118-82 170zM808 682c-40 70-108 126-186 152 26-48 46-98 60-152h126zM512 938c236 0 426-190 426-426s-190-426-426-426-426 190-426 426 190 426 426 426z" />
<glyph unicode="&#xe9ce;" glyph-name="g_translate" d="M896 170v556c0 24-18 42-42 42h-376l50-172h82v44h46v-44h154v-44h-54c-14-54-44-106-82-150l116-114-30-32-116 114-38-38 34-118-86-86h300c24 0 42 18 42 42zM596 506c10-20 26-46 48-72 52 62 66 118 66 118h-170l14-46h42zM564 474l26-94 24 22c-20 22-36 46-50 72zM474 572c0 9.841-0.281 22.561-4 30h-168v-66h94c-6-26-32-64-90-64-56 0-102 48-102 104s46 104 102 104c32 0 52-14 64-26l4-2 52 50-4 2c-32 30-72 46-116 46-96 0-174-78-174-174s78-174 174-174c98 0 168 70 168 170zM854 810c46 0 84-38 84-84v-556c0-46-38-84-84-84h-342l-42 128h-300c-46 0-84 38-84 84v556c0 46 38 84 84 84h256l38-128h390z" />
<glyph unicode="&#xe9cf;" glyph-name="layers" d="M512 342c-128.024 99.309-255.626 199.040-384 298l384 298 384-298c-128.375-98.958-255.974-198.693-384-298zM512 232l314 246 70-54-384-298-384 298 70 54z" />
<glyph unicode="&#xe9d0;" glyph-name="layers_clear" d="M140 982l798-800-54-54-160 162-212-164-384 298 70 54 314-246 150 118-60 60-90-68c-128.024 99.309-255.626 199.040-384 298l138 108-180 180zM896 640c-57.761-44.239-114.863-89.137-172-134l-336 336 124 96zM846 384l-62 62 50 38 62-60z" />
<glyph unicode="&#xe9d1;" glyph-name="web_asset" d="M810 256v426h-596v-426h596zM810 854c48 0 86-40 86-86v-512c0-46-40-86-86-86h-596c-48 0-86 40-86 86v512c0 46 38 86 86 86h596z" />
<glyph unicode="&#xe9d2;" glyph-name="filter_none" d="M896 298v598h-598v-598h598zM896 982c46 0 86-40 86-86v-598c0-46-40-84-86-84h-598c-46 0-84 38-84 84v598c0 46 38 86 84 86h598zM128 810v-682h682v-86h-682c-46 0-86 40-86 86v682h86z" />
<glyph unicode="&#xe9d3;" glyph-name="more" d="M810 448c36 0 64 28 64 64s-28 64-64 64-64-28-64-64 28-64 64-64zM598 448c36 0 64 28 64 64s-28 64-64 64-64-28-64-64 28-64 64-64zM384 448c36 0 64 28 64 64s-28 64-64 64-64-28-64-64 28-64 64-64zM938 896c46 0 86-40 86-86v-596c0-46-40-86-86-86h-636c-30 0-56 16-72 38l-230 346 230 346c16 22 38 38 68 38h640z" />
<glyph unicode="&#xe9d4;" glyph-name="eject" d="M512 810l284-426h-568zM214 298h596v-84h-596v84z" />
<glyph unicode="&#xe9d5;" glyph-name="code" d="M622 316l198 196-198 196 60 60 256-256-256-256zM402 316l-60-60-256 256 256 256 60-60-198-196z" />
<glyph unicode="&#xe9d6;" glyph-name="settings_ethernet" d="M758 790l232-278-232-278-66 54 186 224-186 224zM470 470v84h84v-84h-84zM726 554v-84h-86v84h86zM298 470v84h86v-84h-86zM332 736l-186-224 186-224-66-54-232 278 232 278z" />
<glyph unicode="&#xe9d7;" glyph-name="list" d="M298 726h598v-86h-598v86zM298 298v86h598v-86h-598zM298 470v84h598v-84h-598zM128 640v86h86v-86h-86zM128 298v86h86v-86h-86zM128 470v84h86v-84h-86z" />
<glyph unicode="&#xe9d8;" glyph-name="apps" d="M682 170v172h172v-172h-172zM682 426v172h172v-172h-172zM426 682v172h172v-172h-172zM682 854h172v-172h-172v172zM426 426v172h172v-172h-172zM170 426v172h172v-172h-172zM170 170v172h172v-172h-172zM426 170v172h172v-172h-172zM170 682v172h172v-172h-172z" />
<glyph unicode="&#xe9d9;" glyph-name="view_agenda" d="M854 896c24 0 42-18 42-42v-256c0-24-18-44-42-44h-726c-24 0-42 20-42 44v256c0 24 18 42 42 42h726zM854 470c24 0 42-20 42-44v-256c0-24-18-42-42-42h-726c-24 0-42 18-42 42v256c0 24 18 44 42 44h726z" />
<glyph unicode="&#xe9da;" glyph-name="view_stream" d="M170 810h726v-256h-726v256zM170 256v256h726v-256h-726z" />
<glyph unicode="&#xe9db;" glyph-name="view_week" d="M554 810c24 0 44-18 44-42v-512c0-24-20-42-44-42h-128c-24 0-42 18-42 42v512c0 24 18 42 42 42h128zM854 810c24 0 42-18 42-42v-512c0-24-18-42-42-42h-128c-24 0-44 18-44 42v512c0 24 20 42 44 42h128zM256 810c24 0 42-18 42-42v-512c0-24-18-42-42-42h-128c-24 0-42 18-42 42v512c0 24 18 42 42 42h128z" />
<glyph unicode="&#xe9dc;" glyph-name="view_array" d="M342 256v554h384v-554h-384zM768 810h128v-554h-128v554zM170 256v554h128v-554h-128z" />
<glyph unicode="&#xe9dd;" glyph-name="view_carousel" d="M768 768h170v-470h-170v470zM86 298v470h170v-470h-170zM298 214v640h428v-640h-428z" />
<glyph unicode="&#xe9de;" glyph-name="view_column" d="M682 810h214v-554h-214v554zM170 256v554h214v-554h-214zM426 256v554h214v-554h-214z" />
<glyph unicode="&#xe9df;" glyph-name="view_comfy" d="M768 810h170v-170h-170v170zM768 214v170h170v-170h-170zM554 214v170h172v-170h-172zM342 214v170h170v-170h-170zM128 214v170h170v-170h-170zM768 426v172h170v-172h-170zM554 810h172v-170h-172v170zM342 640v170h170v-170h-170zM554 426v172h172v-172h-172zM342 426v172h170v-172h-170zM128 426v172h170v-172h-170zM128 640v170h170v-170h-170z" />
<glyph unicode="&#xe9e0;" glyph-name="view_compact" d="M128 810h810v-256h-810v256zM426 214v298h512v-298h-512zM128 214v298h256v-298h-256z" />
<glyph unicode="&#xe9e1;" glyph-name="view_day" d="M86 896h810v-128h-810v128zM854 682c24 0 42-18 42-42v-256c0-24-18-42-42-42h-726c-24 0-42 18-42 42v256c0 24 18 42 42 42h726zM86 128v128h810v-128h-810z" />
<glyph unicode="&#xe9e2;" glyph-name="dashboard" d="M554 896h342v-256h-342v256zM554 128v426h342v-426h-342zM128 128v256h342v-256h-342zM128 470v426h342v-426h-342z" />
<glyph unicode="&#xe9e3;" glyph-name="view_list" d="M384 810h512v-170h-512v170zM384 214v170h512v-170h-512zM384 426v172h512v-172h-512zM170 640v170h172v-170h-172zM170 214v170h172v-170h-172zM170 426v172h172v-172h-172z" />
<glyph unicode="&#xe9e4;" glyph-name="view_module" d="M682 810h214v-256h-214v256zM426 554v256h214v-256h-214zM682 256v256h214v-256h-214zM426 256v256h214v-256h-214zM170 256v256h214v-256h-214zM170 554v256h214v-256h-214z" />
<glyph unicode="&#xe9e5;" glyph-name="view_quilt" d="M426 810h470v-256h-470v256zM682 256v256h214v-256h-214zM170 256v554h214v-554h-214zM426 256v256h214v-256h-214z" />
<glyph unicode="&#xe9e6;" glyph-name="menu" d="M128 768h768v-86h-768v86zM128 470v84h768v-84h-768zM128 256v86h768v-86h-768z" />
<glyph unicode="&#xe9e7;" glyph-name="view_headline" d="M170 810h684v-84h-684v84zM170 554v86h684v-86h-684zM170 214v84h684v-84h-684zM170 384v86h684v-86h-684z" />
<glyph unicode="&#xe9e8;" glyph-name="reorder" d="M128 810h768v-84h-768v84zM128 554v86h768v-86h-768zM128 214v84h768v-84h-768zM128 384v86h768v-86h-768z" />
<glyph unicode="&#xe9e9;" glyph-name="more_horiz" d="M512 598c46 0 86-40 86-86s-40-86-86-86-86 40-86 86 40 86 86 86zM768 598c46 0 86-40 86-86s-40-86-86-86-86 40-86 86 40 86 86 86zM256 598c46 0 86-40 86-86s-40-86-86-86-86 40-86 86 40 86 86 86z" />
<glyph unicode="&#xe9ea;" glyph-name="more_vert" d="M512 342c46 0 86-40 86-86s-40-86-86-86-86 40-86 86 40 86 86 86zM512 598c46 0 86-40 86-86s-40-86-86-86-86 40-86 86 40 86 86 86zM512 682c-46 0-86 40-86 86s40 86 86 86 86-40 86-86-40-86-86-86z" />
<glyph unicode="&#xe9eb;" glyph-name="linear_scale" d="M832 618c58 0 106-48 106-106s-48-106-106-106c-44 0-82 26-98 64h-124c-16-38-54-64-98-64s-82 26-98 64h-124c-16-38-54-64-98-64-58 0-106 48-106 106s48 106 106 106c44 0 82-26 98-64h124c16 38 54 64 98 64s82-26 98-64h124c16 38 54 64 98 64z" />
<glyph unicode="&#xe9ec;" glyph-name="network_wifi" d="M872.5 557.172c0.568-0.445 1.068-0.837 1.5-1.172l-362-448-362 448c0.431 0.335 0.931 0.727 1.5 1.172l-135.5 168.828c20 14 210 170 496 170s476-156 496-170z" />
<glyph unicode="&#xe9ed;" glyph-name="next_week" d="M470 234l170 172-170 170-44-42 128-128-128-128zM426 810v-84h172v84h-172zM598 896c46.645 0 84-38.997 84-86v-84h172c46 0 84-40 84-86v-470c0-46-38-84-84-84h-684c-46 0-84 38-84 84v470c0 46 38 86 84 86h172v84c0 46 38 86 84 86h172z" />
<glyph unicode="&#xe9ee;" glyph-name="notifications" d="M768 342l86-86v-42h-684v42l86 86v212c0 132 70 240 192 270v30c0 36 28 64 64 64s64-28 64-64v-30c122-30 192-140 192-270v-212zM512 86c-48 0-86 38-86 84h172c0-46-40-84-86-84z" />
<glyph unicode="&#xe9ef;" glyph-name="add_alert" d="M682 468v86h-128v128h-84v-128h-128v-86h128v-128h84v128h128zM806 306l90-90v-46h-768v46l90 90v248c0 138 96 256 226 286v30c0 38 30 68 68 68s68-30 68-68v-30c130-30 226-148 226-286v-248zM428 128h168c0-46-38-86-84-86s-84 40-84 86z" />
<glyph unicode="&#xe9f0;" glyph-name="notifications_active" d="M512 86c-48 0-86 38-86 84h170c0-49.675-37.225-84-84-84zM768 554v-212l86-86v-42h-684v42l86 86v212c0 132 70 240 192 270v30c0 36 28 64 64 64s64-28 64-64v-30c122-30 192-140 192-270zM852 576c-6 114-64 212-150 274l60 60c102-78 170-198 176-334h-86zM324 850c-88-62-146-160-152-274h-86c6 136 74 256 176 334z" />
<glyph unicode="&#xe9f1;" glyph-name="notifications_none" d="M682 298v256c0 106-64 192-170 192s-170-86-170-192v-256h340zM768 342l86-86v-42h-684v42l86 86v212c0 132 70 240 192 270v30c0 36 28 64 64 64s64-28 64-64v-30c122-30 192-140 192-270v-212zM512 86c-46 0-86 38-86 84h172c0-46-40-84-86-84z" />
<glyph unicode="&#xe9f2;" glyph-name="notifications_off" d="M768 398l-382 402c10 4 20 10 30 14h2l12 6c6 2 12 2 18 4v30c0 36 28 64 64 64s64-28 64-64v-30c122-30 192-138 192-270v-156zM512 86c-48 0-86 36-86 84h172c0-48-38-84-86-84zM334 762c187.235-193.432 375.34-385.994 562-580l-54-54-86 86h-586v42l86 86v214c0 54 12 104 34 146l-120 118 54 56z" />
<glyph unicode="&#xe9f3;" glyph-name="notifications_paused" d="M618 606v76h-212v-76h118l-118-146v-76h212v76h-118zM768 342l86-86v-42h-684v42l86 86v212c0 130 70 240 192 270v30c0 36 28 64 64 64s64-28 64-64v-30c122-30 192-140 192-270v-212zM512 86c-48 0-86 38-86 84h172c0-46-40-84-86-84z" />
<glyph unicode="&#xe9f4;" glyph-name="wifi" d="M214 470c166 164 432 164 596 0l-84-86c-118 118-310 118-428 0zM384 298c70 70 186 70 256 0l-128-128zM42 640c260 258 682 258 940 0l-86-86c-212 212-556 212-768 0z" />
<glyph unicode="&#xe9f5;" glyph-name="rss_feed" d="M170 594c234 0 424-190 424-424h-122c0 166-136 302-302 302v122zM170 834c366 0 664-298 664-664h-120c0 300-244 544-544 544v120zM170 264c0 52 42 92 94 92s92-40 92-92-40-94-92-94-94 42-94 94z" />
<glyph unicode="&#xe9f6;" glyph-name="wifi_tethering" d="M512 896c236 0 426-190 426-426 0-158-84-296-212-370l-44 74c102 60 172 170 172 296 0 188-154 340-342 340s-342-152-342-340c0-126 68-236 170-296l-42-74c-128 74-212 212-212 370 0 236 190 426 426 426zM768 470c0-94-52-178-128-222l-42 74c50 30 84 84 84 148 0 94-76 170-170 170s-170-76-170-170c0-64 34-118 84-148l-42-74c-76 44-128 128-128 222 0 142 114 256 256 256s256-114 256-256zM512 554c46 0 86-38 86-84s-40-86-86-86-86 40-86 86 40 84 86 84z" />
<glyph unicode="&#xe9f7;" glyph-name="search" d="M406 426c106 0 192 86 192 192s-86 192-192 192-192-86-192-192 86-192 192-192zM662 426l212-212-64-64-212 212v34l-12 12c-48-42-112-66-180-66-154 0-278 122-278 276s124 278 278 278 276-124 276-278c0-68-24-132-66-180l12-12h34z" />
<glyph unicode="&#xe9f8;" glyph-name="zoom_in" d="M512 598h-86v-86h-42v86h-86v42h86v86h42v-86h86v-42zM406 426c106 0 192 86 192 192s-86 192-192 192-192-86-192-192 86-192 192-192zM662 426l212-212-64-64-212 212v34l-12 12c-48-42-112-66-180-66-154 0-278 122-278 276s124 278 278 278 276-124 276-278c0-68-24-132-66-180l12-12h34z" />
<glyph unicode="&#xe9f9;" glyph-name="zoom_out" d="M298 640h214v-42h-214v42zM406 426c106 0 192 86 192 192s-86 192-192 192-192-86-192-192 86-192 192-192zM662 426l212-212-64-64-212 212v34l-12 12c-48-42-112-66-180-66-154 0-278 122-278 276s124 278 278 278 276-124 276-278c0-68-24-132-66-180l12-12h34z" />
<glyph unicode="&#xe9fa;" glyph-name="youtube_searched_for" d="M726 426l212-212-62-64-214 214v32l-12 12c-48-42-112-66-180-66-52 0-100 14-142 38l64 62c24-10 50-16 78-16 106 0 192 86 192 192s-86 192-192 192-192-86-192-192h148l-176-170-164 170h106c0 150 124 278 278 278s278-124 278-278c0-70-26-132-68-180l12-12h34z" />
<glyph unicode="&#xe9fb;" glyph-name="man" d="M442.639 446.83l-130.586 180.68v-180.68h-216.348v549.010h285.097l132.477-185.774 132.434 185.774h285.14v-549.010h-216.422v180.68l-130.678-180.68h-141.115zM653.691 173.683h-1.014c-3.96-7.35-17.866-9.759-26.207-11.144-52.511-9.523-118.070-9.523-118.070-58.634 0-31.020 27.187-50.281 56.637-50.281 47.706 0 88.655 30.011 88.655 79.711v40.348h-0.003zM670.441 33.265c-8.42 0-15.365 6.979-15.365 15.565l-1.321 19.999c-23.043-28.659-42.004-41.26-91.131-41.26-47.299 0-85.24 23.002-85.24 73.748 0 70.346 69.363 77.322 136.358 85.263 25.628 2.378 39.946 8.689 39.946 36.042 0 35.336-35.3 45.77-72.271 45.77-38.794 0-73.495-17.449-75.046-58.662h-15.132c0 0-16.635 0.266-13.309 18.294 10.079 46.062 55.37 66.327 107.461 66.327 44.749 0 99.131-13.258 99.131-81.065v-133.985c0-30.077 3.85-46.031 3.85-46.031l-17.93-0.005zM740.124 286.994c15.726 0 15.411 0 15.411 0v-27.73h1.006c17.58 29.125 58.26 35.080 77.678 35.080 71.365 0 96.64-52.621 96.64-97.984v-147.53c0-8.586-6.958-15.565-15.544-15.565h-15.478v158.3c0 43.154-17.923 73.134-68.004 73.134-45.046 0-74.721-33.769-76.293-83.471v-147.963h-15.465c-8.586 0-15.532 6.979-15.532 15.565v222.779c0 8.43 6.945 15.386 15.532 15.386zM393.577 361.736c2.432 5.307 7.772 8.965 13.993 8.965h17.708c8.563 0 15.404-6.95 15.404-15.37v-306.501c0-8.586-6.84-15.565-15.404-15.565h-15.795l0.212 291.74-125.486-291.74h-32.054l-125.44 291.74 0.215-291.74h-15.849c-8.499 0-15.373 6.979-15.373 15.565v306.501c0 8.42 6.874 15.37 15.373 15.37h17.789c6.19 0 11.52-3.658 13.998-8.965l125.317-290.501 125.391 290.501z" />
<glyph unicode="&#xe9fc;" glyph-name="doc" d="M868.992 779.221c9.387-9.344 17.323-22.016 24.021-38.016 6.656-16 9.984-30.677 9.984-43.989v-576c0-13.312-4.608-24.661-13.995-34.005-9.387-9.387-20.651-13.995-34.048-13.995h-671.957c-13.312 0-24.661 4.608-33.963 13.995-9.387 9.344-13.995 20.651-13.995 34.005v800c0 13.312 4.608 24.661 13.995 34.005 9.301 9.344 20.651 13.995 33.963 13.995h448c13.355 0 27.989-3.328 43.989-9.984 16.043-6.656 28.715-14.677 38.016-23.979l155.989-156.032zM838.997 137.173v512.043h-208c-13.312 0-24.661 4.651-33.963 13.995-9.387 9.344-13.995 20.651-13.995 34.005v208h-384.043v-768.043h640zM646.997 901.205v-187.989h188.032c-3.328 9.685-6.997 16.512-11.008 20.48l-156.544 156.501c-3.925 4.011-10.752 7.68-20.48 11.008z" />
<glyph unicode="&#xe9fd;" glyph-name="pdf" d="M868.992 779.221c9.387-9.344 17.323-22.016 24.021-38.016 6.656-16 9.984-30.677 9.984-43.989v-576c0-13.312-4.608-24.661-13.995-34.005-9.387-9.387-20.651-13.995-34.048-13.995h-671.957c-13.312 0-24.661 4.608-33.963 13.995-9.387 9.344-13.995 20.651-13.995 34.005v800c0 13.312 4.608 24.661 13.995 34.005 9.301 9.344 20.651 13.995 33.963 13.995h448c13.355 0 27.989-3.328 43.989-9.984 16.043-6.656 28.715-14.677 38.016-23.979l155.989-156.032zM838.997 137.173v512.043h-208c-13.312 0-24.661 4.651-33.963 13.995-9.387 9.344-13.995 20.651-13.995 34.005v208h-384.043v-768.043h640zM582.016 433.707c11.051-8.661 25.045-18.048 41.984-27.989 19.669 2.347 39.211 3.499 58.539 3.499 48.981 0 78.507-8.149 88.448-24.491 5.333-7.339 5.675-16 1.024-25.984 0-0.341-0.171-0.683-0.512-1.024-0.384-0.299-0.725-0.64-0.981-0.939v-0.555c-2.005-12.672-13.867-18.944-35.499-18.944-16 0-35.157 3.328-57.515 9.941-22.357 6.699-43.989 15.531-64.981 26.496-73.685-7.979-139.051-21.803-196.011-41.472-50.987-87.339-91.392-130.987-121.003-130.987-4.992 0-9.643 1.152-13.995 3.499l-11.989 5.973c-0.384 0.384-1.323 1.195-2.987 2.56-3.371 3.328-4.395 9.344-3.029 18.005 3.029 13.312 12.331 28.544 27.989 45.739 15.659 17.152 37.717 33.237 66.048 48.256 4.651 2.944 8.491 2.005 11.52-2.987 0.683-0.683 0.939-1.365 0.939-2.005 17.408 28.331 35.157 61.184 53.547 98.517 22.656 45.312 40.021 89.003 51.968 130.987-7.979 27.349-13.056 53.931-15.189 79.744-2.219 25.813-1.109 47.104 3.243 63.744 3.669 13.312 10.667 20.011 20.992 20.011h11.008c7.637 0 13.483-2.517 17.493-7.509 5.973-6.997 7.467-18.347 4.437-34.005-0.597-2.005-1.28-3.328-2.005-4.011 0.341-0.981 0.555-2.347 0.555-4.011v-15.019c-0.725-41.003-2.987-73.003-6.997-96 18.347-54.699 42.667-94.379 72.96-119.040zM294.059 228.181c17.323 8.021 40.149 34.389 68.48 79.019-17.024-13.312-31.573-27.307-43.733-41.984s-20.48-27.008-24.747-37.035zM431.061 357.675c45.013 18.048 92.331 31.488 141.952 40.491-0.64 0.384-2.816 1.963-6.485 4.779s-6.272 5.077-7.979 6.741c-25.387 22.315-46.549 51.669-63.488 87.979-9.045-28.672-22.869-61.483-41.515-98.517-10.027-18.645-17.493-32.469-22.485-41.472zM493.013 688.213c-4.949-13.995-5.333-36.011-0.939-66.005 0.384 2.347 1.493 9.685 3.499 22.016 0 0.981 1.109 8.149 3.499 21.504 0.384 1.323 0.939 2.645 2.005 4.011-0.341 0.341-0.512 0.683-0.512 0.981s-0.085 0.597-0.256 0.768c-0.213 0.171-0.299 0.427-0.299 0.768-0.341 7.339-2.475 13.312-6.443 18.005 0-0.341-0.171-0.683-0.555-0.981v-1.067zM646.997 901.205v-187.989h188.032c-3.328 9.685-6.997 16.512-11.008 20.48l-156.544 156.501c-3.925 4.011-10.752 7.68-20.48 11.008zM754.048 365.696c-8.021 7.979-31.317 11.989-70.016 11.989 25.387-9.387 45.995-13.995 61.995-13.995 4.651 0 7.637 0.171 8.96 0.512 0 0.299-0.299 0.853-0.939 1.493z" />
<glyph unicode="&#xe9fe;" glyph-name="excel" d="M869.035 779.221c9.344-9.344 17.323-22.016 23.979-38.016s9.984-30.677 9.984-43.989v-576c0-13.312-4.651-24.661-13.995-34.005s-20.651-13.995-34.005-13.995h-671.915c-13.312 0-24.661 4.651-34.005 13.995s-13.995 20.651-13.995 34.005v800c0 13.312 4.651 24.661 13.995 34.005s20.651 13.995 34.005 13.995h448c13.312 0 27.989-3.328 43.989-9.984s28.672-14.677 38.016-23.979l155.947-156.032zM839.040 137.216v512h-208c-13.312 0-24.661 4.651-34.005 13.995s-13.995 20.651-13.995 34.005v208h-384v-768h640zM349.568 254.208v-52.992h140.501v52.992h-37.504l51.499 80.512c1.664 2.347 3.328 5.077 4.992 8.235s2.901 5.419 3.755 6.741 1.408 2.005 1.749 2.005h0.981c0.341-1.323 1.152-2.987 2.517-4.992 0.683-1.323 1.408-2.603 2.261-3.755s1.835-2.517 2.987-4.011 2.261-2.901 3.243-4.267l53.461-80.512h-38.016v-52.992h145.493v52.992h-34.005l-96 136.491 97.493 141.013h33.493v53.504h-139.52v-53.504h36.992l-51.456-79.488c-1.365-2.347-3.029-5.077-5.035-8.235s-3.499-5.419-4.48-6.741l-0.981-1.493h-0.981c-0.341 1.323-1.152 2.987-2.517 4.992-2.005 3.669-4.821 7.509-8.491 11.52l-52.992 79.488h38.016v53.504h-144.981v-53.504h34.005l94.507-136.021-96.981-141.483h-34.005zM647.040 901.205v-187.989h187.989c-3.328 9.685-6.997 16.512-11.008 20.48l-156.501 156.501c-3.968 4.011-10.795 7.68-20.48 11.008z" />
</font>
</defs>
</svg>
